<svg xmlns="http://www.w3.org/2000/svg" viewBox="0 0 24 24" width="100%" height="100%">
  <g stroke="#1e293b" stroke-width="1" stroke-linecap="round" stroke-linejoin="round">
    <line x1="3" y1="20" x2="21" y2="20" />
    <line x1="5" y1="23" x2="19" y2="23" />
    <line x1="7" y1="18" x2="7" y2="24" />
    <line x1="12" y1="18" x2="12" y2="24" />
    <line x1="17" y1="18" x2="17" y2="24" />
  </g>

  <g transform="translate(0, -1)">
    <path d="M8.5 14.5A2.5 2.5 0 0 0 11 12c0-1.38-.5-2-1-3-1.072-2.143-.224-4.054 2-6 .5 2.5 2 4.9 4 6.5 2 1.6 3 3.5 3 5.5a7 7 0 1 1-14 0c0-1.153.433-2.294 1-3a2.5 2.5 0 0 0 2.5 2.5z" 
          stroke="#ea580c" 
          stroke-width="1.5" 
          stroke-linecap="round" 
          stroke-linejoin="round" 
          fill="#ea580c" 
          fill-opacity="0.15"/>
  </g>
</svg>