<svg xmlns="http://www.w3.org/2000/svg" width="225" height="39.996" viewBox="0 0 225 39.996"><g transform="translate(0 -0.008)"><path d="M220.577,21.966v-.014a2.21,2.21,0,1,1,0,.014Zm.2-.014v.014a2.033,2.033,0,1,0,0-.014Zm1.472,1.074-.331,0V20.752h1.015a.942.942,0,0,1,.671.241.6.6,0,0,1,.185.439v.014a.673.673,0,0,1-.587.666l.7.907-.41,0-.655-.855h-.581v.858Zm0-1.159h.648c.331,0,.538-.153.538-.4V21.45c0-.241-.2-.392-.52-.392h-.666Zm-162.094.02-4.968,0L62.525,3.6c.6-1.544,1.7-3.6,4.391-3.6H68.44c2.618,0,3.721,1.924,4.389,3.6L80.158,21.88l-4.97,0-2.213-5.526h-10.6l-2.213,5.526,0,0ZM66.77,5.49l-2.649,6.4h7.113l-2.649-6.4c-.284-.707-.394-.837-.506-.837h-.8C67.164,4.652,67.049,4.785,66.77,5.49ZM202.733,21.885a7.815,7.815,0,0,1-8.092-8.069V8.071A7.815,7.815,0,0,1,202.733,0h9a7.816,7.816,0,0,1,8.092,8.071v5.744a7.816,7.816,0,0,1-8.092,8.069ZM199.287,8.071v5.744A3.351,3.351,0,0,0,202.8,17.3H211.7a3.3,3.3,0,0,0,3.484-3.489V8.071A3.3,3.3,0,0,0,211.7,4.58H202.8A3.352,3.352,0,0,0,199.287,8.071ZM176.162,21.885a5.3,5.3,0,0,1-5.337-5.343V0h4.61V16.577a.73.73,0,0,0,.727.727h15.094v4.58Zm-26.96,0a7.814,7.814,0,0,1-8.094-8.069V8.107A7.823,7.823,0,0,1,149.2,0h14.914V4.58H149.2a3.4,3.4,0,0,0-3.556,3.527v5.708A3.356,3.356,0,0,0,149.2,17.3H159.58V13.233h-8.636V8.544h13.172V21.885Zm-60.261,0V4.58H80.16V0h22.134V4.58H93.512v17.3Zm-53.851,0A6.347,6.347,0,0,1,28.7,15.524V6.363A6.349,6.349,0,0,1,35.09,0H51.2V4.58H35.09A1.847,1.847,0,0,0,33.276,6.4V8.652h16.91v4.58H33.276v2.255A1.846,1.846,0,0,0,35.09,17.3H51.2v4.58Zm-18.033,0V13.233H4.61v8.652H0V0H4.61V8.652H17.057V0h4.571V21.885Z" transform="translate(0 14.916)"/><path d="M14.07,40c-.926,0-1.829-.045-2.667-.094a14.376,14.376,0,0,1-8.957-4.413A10.1,10.1,0,0,1,.041,27.754a9.747,9.747,0,0,1,3.813-7.5c1.623-1.456,4.569-2.693,6.329-3.432.25-.1.472-.2.659-.279A8.839,8.839,0,0,1,12.2,10.457a20.371,20.371,0,0,1,3.7-3.726,9.406,9.406,0,0,0,1.443-1.34c.028-.039.058-.081.092-.125.433-.584,1.334-1.8.491-5.263l.008,0,.018,0a16.367,16.367,0,0,1,4.962,1.54A8.3,8.3,0,0,1,27.911,9.09c0,8.12-8.747,10.962-11.621,11.9-.3.1-.634.2-.991.3-3.5,1.05-9.349,2.808-9.349,8.989,0,3.191,2.917,6.719,7.259,6.885.083,0,.167,0,.251,0,2.767,0,6.1-1.6,7.283-3.491,1.47-2.337,1.445-4.29-.074-5.8l-.023-.023c-.346.042-.964.141-1.679.256-.926.149-1.973.317-2.818.424a2.365,2.365,0,0,0-2.357,2.26c-.043-.055-.1-.116-.155-.188a3.423,3.423,0,0,1-.916-3.632c.9-2.2,2.651-2.582,4.681-3.019.183-.039.368-.079.555-.121,2.45-.539,5.791-1.283,6.507-1.515,1.3-.425,2.994-1.951,2.489-3.878,2.4.369,3.7,1.444,3.964,3.284a4.472,4.472,0,0,1-2.4,4.461l-.2.11a5.206,5.206,0,0,1-1.756.678c.871,1.193,1.012,4.232-.1,6.507a10.814,10.814,0,0,1-4.4,4.56A15.03,15.03,0,0,1,14.07,40ZM20.883,4.078c0,.028.323,2.674-2.631,4.925-2.2,1.676-3.365,3.328-3.282,4.65a1.963,1.963,0,0,0,1.058,1.6,1.751,1.751,0,0,0,.874.183,9.5,9.5,0,0,0,5.82-2.773,4.919,4.919,0,0,0,1.6-3.492A5.267,5.267,0,0,0,20.883,4.078Z" transform="translate(104.358 0.008)" fill="#ea7125"/></g></svg>
