<svg viewBox="0 0 164 25" fill="currentColor" fill-rule="evenodd" xmlns="http://www.w3.org/2000/svg">
    <path d="M47.5615246,12.6521316 L65.3070985,12.653632 C65.3070985,12.653632 65.4193754,12.6473306 65.5690778,12.6473306 C67.0004545,12.6473306 71.2166657,12.456791 71.4789518,7.23300446 C71.2166657,2.03112247 67.0541388,2.08333333 65.5703049,2.08333333 L47.5615246,2.09023477 L47.5615246,12.6521316 Z M66.9210018,14.3909933 L73.8441285,25 L71.4209728,25 L64.5641078,14.7435667 L47.5615246,14.735465 L47.5615246,25 L45.4347062,25 L45.4347062,0.00870180998 L45.6874826,0.00870180998 C45.6874826,0.00870180998 65.4031167,5.68434189e-14 65.5703049,5.68434189e-14 C66.8038166,5.68434189e-14 72.9836459,0.322267032 73.5879777,6.72199818 L73.5879777,6.71929761 C73.5913522,6.71929761 73.6275507,6.94464449 73.6275507,7.23690528 C73.6275507,7.53696769 73.5879777,7.77731768 73.5879777,7.78451918 C73.1057394,12.8537736 69.0468999,14.0924312 66.9210018,14.3909933 Z M109.326687,16.8806112 L119.393566,5.68434189e-14 L116.94004,5.68434189e-14 L102.031144,25 L104.411659,25 L108.01679,18.9582433 L126.800158,18.9582433 L130.920658,25 L133.470508,25 L127.947775,16.8986149 L109.326687,16.8806112 Z M161.869194,18.4580393 L161.869194,22.9166667 L138.846914,22.922968 L138.846914,5.68434189e-14 L136.713653,5.68434189e-14 L136.713653,24.850869 L136.859674,25 L164,24.9945989 L164,18.4580393 L161.869194,18.4580393 Z M2.13172667,22.9166667 L37.9787246,22.9166667 L37.9787246,2.08483365 L2.13172667,2.08483365 L2.13172667,22.9166667 Z M0,25 L40.1303911,25 L40.1303911,0 L0,0 L0,25 Z M102.937642,2.08483365 L92.1971018,2.08483365 L92.1971018,25 L90.0647616,25 L90.0647616,2.08483365 L76.4384604,2.08483365 L76.4384604,0.00870180998 L105.057712,0.00870180998 L105.057712,6.5485621 L102.937642,6.5485621 L102.937642,2.08483365 L102.937642,2.08483365 Z" id="Fill-27"></path>
</svg>
