<?xml version="1.0" encoding="utf-8"?>
<!-- Generator: Adobe Illustrator 25.2.3, SVG Export Plug-In . SVG Version: 6.00 Build 0)  -->
<svg version="1.1" id="Layer_1" xmlns="http://www.w3.org/2000/svg" xmlns:xlink="http://www.w3.org/1999/xlink" x="0px" y="0px"
	 viewBox="0 0 561.29 136.41" style="enable-background:new 0 0 561.29 136.41;" xml:space="preserve">
<style type="text/css">
	.st0{fill-rule:evenodd;clip-rule:evenodd;fill:#E1251B;}
</style>
<g>
	<path class="st0" d="M130.47,115.24v2.47h-7.41v4.94h6.26v2.48h-6.26v6.8h-3.12v-16.69H130.47L130.47,115.24z M145.18,131.93h-3.12
		v-16.69h3.12V131.93L145.18,131.93z M161.07,125.41v6.52h-3.11v-16.69h5.09c1.13,0,2.1,0.12,2.92,0.35c0.81,0.23,1.48,0.56,2,0.99
		c0.52,0.42,0.9,0.93,1.15,1.52c0.25,0.59,0.37,1.24,0.37,1.95c0,0.56-0.08,1.09-0.25,1.59c-0.16,0.5-0.4,0.95-0.71,1.36
		c-0.31,0.41-0.7,0.77-1.16,1.07c-0.46,0.31-0.98,0.55-1.56,0.74c0.39,0.22,0.73,0.54,1.02,0.96l4.18,6.17h-2.8
		c-0.53,0-0.92-0.21-1.15-0.62l-3.51-5.35c-0.13-0.2-0.28-0.34-0.43-0.43c-0.16-0.08-0.39-0.13-0.7-0.13H161.07L161.07,125.41z
		 M161.07,123.18L161.07,123.18h1.94c0.58,0,1.09-0.07,1.53-0.22c0.44-0.15,0.79-0.35,1.07-0.61c0.28-0.26,0.49-0.56,0.63-0.92
		c0.14-0.35,0.21-0.74,0.21-1.17c0-0.85-0.28-1.5-0.84-1.95c-0.56-0.45-1.41-0.68-2.56-0.68h-1.98V123.18L161.07,123.18z
		 M192.39,115.24v2.47h-7.41v4.63h5.84v2.39h-5.84v4.72h7.41v2.48h-10.53v-16.69H192.39L192.39,115.24z M207.29,126.06v5.88h-3.11
		v-16.69h5.43c1.11,0,2.08,0.13,2.9,0.39c0.82,0.26,1.49,0.63,2.02,1.1c0.53,0.47,0.93,1.03,1.18,1.69
		c0.26,0.65,0.39,1.37,0.39,2.15c0,0.81-0.13,1.55-0.4,2.22c-0.27,0.67-0.67,1.25-1.21,1.74c-0.54,0.48-1.21,0.86-2.03,1.13
		c-0.81,0.27-1.76,0.4-2.85,0.4H207.29L207.29,126.06z M207.29,123.63L207.29,123.63h2.32c0.57,0,1.07-0.07,1.49-0.21
		c0.42-0.14,0.78-0.35,1.06-0.61c0.28-0.27,0.49-0.59,0.63-0.97c0.14-0.38,0.21-0.81,0.21-1.28c0-0.45-0.07-0.85-0.21-1.21
		c-0.14-0.36-0.34-0.67-0.62-0.92c-0.28-0.25-0.63-0.45-1.05-0.58c-0.42-0.13-0.92-0.2-1.5-0.2h-2.32V123.63L207.29,123.63z
		 M230.63,129.37h6.67v2.56h-9.78v-16.69h3.11V129.37L230.63,129.37z M262.88,131.93h-2.4c-0.27,0-0.49-0.07-0.66-0.2
		c-0.17-0.13-0.3-0.3-0.38-0.5l-1.25-3.41h-6.92l-1.25,3.41c-0.06,0.18-0.18,0.34-0.36,0.48c-0.18,0.15-0.4,0.22-0.66,0.22h-2.42
		l6.57-16.69h3.16L262.88,131.93L262.88,131.93z M252.07,125.63L252.07,125.63h5.32l-2.03-5.55c-0.1-0.25-0.2-0.54-0.31-0.87
		c-0.11-0.34-0.22-0.7-0.32-1.09c-0.11,0.39-0.21,0.76-0.32,1.1c-0.1,0.34-0.21,0.63-0.31,0.89L252.07,125.63L252.07,125.63z
		 M284.63,127.99c0.17,0,0.32,0.07,0.45,0.2l1.22,1.33c-0.68,0.84-1.51,1.48-2.5,1.93c-0.99,0.45-2.18,0.67-3.56,0.67
		c-1.24,0-2.35-0.21-3.34-0.64c-0.99-0.42-1.84-1.01-2.53-1.77c-0.7-0.75-1.24-1.65-1.61-2.7c-0.37-1.05-0.56-2.19-0.56-3.43
		c0-1.25,0.2-2.4,0.6-3.45c0.4-1.04,0.96-1.94,1.69-2.7c0.73-0.75,1.6-1.34,2.6-1.76c1.01-0.42,2.12-0.63,3.35-0.63
		c1.22,0,2.3,0.2,3.24,0.6c0.94,0.4,1.74,0.92,2.41,1.57l-1.04,1.44c-0.06,0.09-0.14,0.17-0.24,0.24c-0.1,0.07-0.23,0.1-0.4,0.1
		c-0.12,0-0.24-0.03-0.36-0.1c-0.12-0.07-0.26-0.15-0.4-0.24c-0.15-0.1-0.32-0.2-0.51-0.32c-0.19-0.12-0.42-0.22-0.67-0.32
		c-0.25-0.1-0.55-0.18-0.88-0.24c-0.33-0.07-0.72-0.1-1.16-0.1c-0.75,0-1.43,0.13-2.05,0.4c-0.62,0.27-1.15,0.65-1.6,1.15
		c-0.45,0.5-0.79,1.12-1.04,1.85c-0.25,0.73-0.37,1.56-0.37,2.49c0,0.94,0.13,1.77,0.4,2.51c0.27,0.73,0.63,1.35,1.08,1.85
		c0.45,0.5,0.99,0.88,1.61,1.15c0.62,0.27,1.28,0.4,1.99,0.4c0.42,0,0.81-0.02,1.15-0.07c0.34-0.05,0.66-0.12,0.95-0.22
		c0.29-0.1,0.56-0.23,0.82-0.39c0.26-0.16,0.51-0.35,0.77-0.58c0.08-0.07,0.16-0.13,0.24-0.17
		C284.45,128.02,284.54,127.99,284.63,127.99L284.63,127.99z M308.02,115.24v2.47h-7.41v4.63h5.84v2.39h-5.84v4.72h7.41v2.48h-10.53
		v-16.69H308.02L308.02,115.24z M341.28,126.06v5.88h-3.11v-16.69h5.43c1.12,0,2.08,0.13,2.9,0.39c0.82,0.26,1.49,0.63,2.02,1.1
		c0.53,0.47,0.93,1.03,1.18,1.69c0.26,0.65,0.39,1.37,0.39,2.15c0,0.81-0.14,1.55-0.4,2.22c-0.27,0.67-0.67,1.25-1.21,1.74
		c-0.54,0.48-1.22,0.86-2.03,1.13c-0.81,0.27-1.76,0.4-2.85,0.4H341.28L341.28,126.06z M341.28,123.63L341.28,123.63h2.32
		c0.57,0,1.07-0.07,1.49-0.21c0.42-0.14,0.78-0.35,1.06-0.61c0.28-0.27,0.49-0.59,0.63-0.97c0.14-0.38,0.21-0.81,0.21-1.28
		c0-0.45-0.07-0.85-0.21-1.21c-0.14-0.36-0.34-0.67-0.62-0.92c-0.28-0.25-0.63-0.45-1.05-0.58c-0.42-0.13-0.92-0.2-1.5-0.2h-2.32
		V123.63L341.28,123.63z M364.62,125.41v6.52h-3.11v-16.69h5.09c1.13,0,2.1,0.12,2.92,0.35c0.81,0.23,1.48,0.56,2,0.99
		c0.52,0.42,0.9,0.93,1.15,1.52c0.25,0.59,0.37,1.24,0.37,1.95c0,0.56-0.08,1.09-0.25,1.59c-0.17,0.5-0.4,0.95-0.72,1.36
		c-0.31,0.41-0.7,0.77-1.15,1.07c-0.46,0.31-0.98,0.55-1.56,0.74c0.39,0.22,0.73,0.54,1.02,0.96l4.18,6.17h-2.8
		c-0.53,0-0.92-0.21-1.16-0.62l-3.51-5.35c-0.13-0.2-0.28-0.34-0.43-0.43c-0.16-0.08-0.39-0.13-0.7-0.13H364.62L364.62,125.41z
		 M364.62,123.18L364.62,123.18h1.94c0.58,0,1.09-0.07,1.53-0.22c0.43-0.15,0.79-0.35,1.07-0.61c0.28-0.26,0.49-0.56,0.63-0.92
		c0.14-0.35,0.21-0.74,0.21-1.17c0-0.85-0.28-1.5-0.84-1.95c-0.56-0.45-1.41-0.68-2.56-0.68h-1.99V123.18L364.62,123.18z
		 M401.08,123.58c0,1.22-0.2,2.36-0.61,3.4c-0.4,1.04-0.98,1.95-1.71,2.71c-0.74,0.76-1.63,1.36-2.67,1.78
		c-1.04,0.43-2.19,0.64-3.46,0.64c-1.26,0-2.41-0.21-3.45-0.64c-1.04-0.43-1.93-1.02-2.67-1.78c-0.74-0.76-1.32-1.66-1.72-2.71
		c-0.41-1.04-0.61-2.18-0.61-3.4c0-1.22,0.2-2.36,0.61-3.4c0.41-1.04,0.98-1.95,1.72-2.71c0.74-0.76,1.63-1.36,2.67-1.78
		c1.04-0.43,2.19-0.64,3.45-0.64c0.85,0,1.64,0.1,2.39,0.29c0.75,0.2,1.43,0.47,2.05,0.83c0.62,0.36,1.18,0.79,1.68,1.3
		c0.5,0.51,0.92,1.08,1.26,1.71c0.35,0.63,0.61,1.32,0.79,2.06C400.99,121.99,401.08,122.77,401.08,123.58L401.08,123.58z
		 M397.91,123.58L397.91,123.58c0-0.92-0.12-1.74-0.37-2.47c-0.25-0.73-0.6-1.34-1.05-1.85c-0.45-0.51-1.01-0.9-1.66-1.17
		c-0.65-0.27-1.38-0.4-2.2-0.4c-0.82,0-1.55,0.13-2.2,0.4c-0.65,0.27-1.21,0.66-1.66,1.17c-0.46,0.51-0.81,1.13-1.06,1.85
		c-0.25,0.73-0.37,1.55-0.37,2.47c0,0.92,0.12,1.74,0.37,2.47c0.25,0.73,0.6,1.34,1.06,1.85c0.46,0.5,1.01,0.89,1.66,1.16
		c0.65,0.27,1.38,0.4,2.2,0.4c0.82,0,1.55-0.13,2.2-0.4c0.65-0.27,1.2-0.66,1.66-1.16c0.45-0.5,0.81-1.12,1.05-1.85
		C397.78,125.32,397.91,124.5,397.91,123.58L397.91,123.58z M427.69,123.58c0,1.22-0.2,2.35-0.61,3.37
		c-0.41,1.02-0.98,1.9-1.72,2.64c-0.74,0.74-1.63,1.31-2.67,1.72c-1.04,0.41-2.19,0.61-3.46,0.61h-6.36v-16.69h6.36
		c1.27,0,2.42,0.21,3.46,0.62c1.04,0.41,1.93,0.99,2.67,1.72c0.74,0.74,1.31,1.62,1.72,2.64
		C427.49,121.24,427.69,122.36,427.69,123.58L427.69,123.58z M424.51,123.58L424.51,123.58c0-0.92-0.12-1.74-0.36-2.47
		c-0.24-0.73-0.59-1.34-1.05-1.85c-0.46-0.5-1.01-0.89-1.66-1.16c-0.65-0.27-1.38-0.4-2.2-0.4h-3.25v11.75h3.25
		c0.82,0,1.55-0.13,2.2-0.4c0.65-0.27,1.2-0.66,1.66-1.16c0.46-0.5,0.81-1.12,1.05-1.85C424.39,125.32,424.51,124.5,424.51,123.58
		L424.51,123.58z M446.2,129.43c0.6,0,1.14-0.1,1.61-0.3c0.47-0.2,0.87-0.48,1.19-0.84c0.32-0.36,0.57-0.8,0.75-1.32
		c0.17-0.51,0.26-1.09,0.26-1.73v-10h3.11v10c0,0.99-0.16,1.91-0.48,2.75c-0.32,0.84-0.78,1.57-1.37,2.18
		c-0.6,0.61-1.32,1.09-2.18,1.43c-0.85,0.34-1.82,0.51-2.89,0.51c-1.08,0-2.04-0.17-2.9-0.51c-0.86-0.34-1.58-0.82-2.18-1.43
		c-0.6-0.61-1.05-1.34-1.37-2.18c-0.32-0.84-0.48-1.76-0.48-2.75v-10h3.11v9.99c0,0.64,0.09,1.22,0.26,1.73
		c0.17,0.52,0.42,0.96,0.75,1.32c0.33,0.37,0.73,0.65,1.2,0.85C445.06,129.33,445.6,129.43,446.2,129.43L446.2,129.43z
		 M477.14,127.99c0.17,0,0.32,0.07,0.45,0.2l1.22,1.33c-0.68,0.84-1.51,1.48-2.5,1.93c-0.99,0.45-2.18,0.67-3.56,0.67
		c-1.24,0-2.35-0.21-3.34-0.64c-0.99-0.42-1.83-1.01-2.53-1.77c-0.7-0.75-1.24-1.65-1.61-2.7c-0.37-1.05-0.56-2.19-0.56-3.43
		c0-1.25,0.2-2.4,0.6-3.45c0.4-1.04,0.96-1.94,1.69-2.7c0.73-0.75,1.59-1.34,2.6-1.76c1.01-0.42,2.12-0.63,3.35-0.63
		c1.22,0,2.3,0.2,3.24,0.6c0.94,0.4,1.74,0.92,2.41,1.57l-1.04,1.44c-0.06,0.09-0.14,0.17-0.24,0.24c-0.1,0.07-0.23,0.1-0.4,0.1
		c-0.11,0-0.23-0.03-0.36-0.1c-0.12-0.07-0.26-0.15-0.4-0.24c-0.15-0.1-0.32-0.2-0.51-0.32c-0.19-0.12-0.41-0.22-0.67-0.32
		c-0.25-0.1-0.55-0.18-0.88-0.24c-0.33-0.07-0.72-0.1-1.16-0.1c-0.75,0-1.43,0.13-2.05,0.4c-0.62,0.27-1.15,0.65-1.6,1.15
		c-0.45,0.5-0.79,1.12-1.04,1.85c-0.25,0.73-0.37,1.56-0.37,2.49c0,0.94,0.13,1.77,0.4,2.51c0.26,0.73,0.63,1.35,1.08,1.85
		c0.45,0.5,0.99,0.88,1.6,1.15c0.62,0.27,1.28,0.4,1.99,0.4c0.42,0,0.81-0.02,1.15-0.07c0.34-0.05,0.66-0.12,0.95-0.22
		c0.29-0.1,0.56-0.23,0.82-0.39c0.26-0.16,0.51-0.35,0.77-0.58c0.08-0.07,0.16-0.13,0.24-0.17
		C476.96,128.02,477.05,127.99,477.14,127.99L477.14,127.99z M501.66,115.24v2.55h-5.03v14.14h-3.11v-14.14h-5.03v-2.55H501.66
		L501.66,115.24z M521.8,118.27c-0.09,0.16-0.19,0.28-0.29,0.35c-0.1,0.07-0.23,0.11-0.39,0.11c-0.16,0-0.34-0.06-0.53-0.18
		c-0.19-0.12-0.41-0.25-0.67-0.4c-0.26-0.15-0.57-0.28-0.92-0.4c-0.35-0.12-0.77-0.18-1.24-0.18c-0.43,0-0.81,0.05-1.13,0.16
		c-0.32,0.1-0.59,0.25-0.81,0.43c-0.22,0.19-0.38,0.41-0.49,0.66c-0.11,0.26-0.16,0.54-0.16,0.85c0,0.39,0.11,0.72,0.33,0.98
		c0.22,0.26,0.51,0.48,0.87,0.67c0.36,0.18,0.77,0.35,1.24,0.5c0.46,0.15,0.93,0.3,1.42,0.47c0.49,0.17,0.96,0.36,1.42,0.58
		c0.46,0.22,0.87,0.5,1.24,0.83c0.36,0.34,0.65,0.74,0.87,1.23c0.22,0.48,0.33,1.07,0.33,1.77c0,0.75-0.13,1.46-0.39,2.12
		c-0.26,0.66-0.64,1.23-1.13,1.72c-0.5,0.49-1.1,0.87-1.82,1.15c-0.72,0.28-1.54,0.42-2.46,0.42c-0.53,0-1.06-0.05-1.57-0.16
		c-0.52-0.1-1.01-0.25-1.48-0.44c-0.47-0.19-0.92-0.42-1.33-0.69c-0.42-0.27-0.78-0.57-1.11-0.9l0.91-1.49
		c0.08-0.11,0.18-0.2,0.3-0.27c0.12-0.07,0.26-0.11,0.39-0.11c0.19,0,0.4,0.08,0.62,0.24c0.22,0.16,0.49,0.33,0.8,0.53
		c0.31,0.19,0.67,0.37,1.08,0.53c0.41,0.16,0.91,0.24,1.48,0.24c0.88,0,1.57-0.21,2.05-0.63c0.48-0.42,0.73-1.02,0.73-1.81
		c0-0.44-0.11-0.8-0.33-1.07c-0.22-0.28-0.51-0.51-0.87-0.7c-0.36-0.19-0.77-0.35-1.23-0.48c-0.46-0.13-0.93-0.27-1.41-0.43
		c-0.48-0.15-0.95-0.34-1.41-0.55c-0.46-0.22-0.87-0.5-1.24-0.84c-0.36-0.35-0.65-0.78-0.87-1.3c-0.22-0.52-0.33-1.16-0.33-1.92
		c0-0.61,0.12-1.2,0.36-1.78c0.24-0.58,0.59-1.09,1.06-1.53c0.46-0.45,1.03-0.8,1.71-1.07c0.68-0.27,1.45-0.4,2.33-0.4
		c0.99,0,1.89,0.15,2.72,0.46c0.83,0.31,1.54,0.74,2.12,1.29L521.8,118.27z"/>
	<path class="st0" d="M74.36,88.34c-8.81,13.45-15.75,24.93-7.22,44.09c-11.28-9.21-20.73-22.89-15.22-37.72
		c1.62-4.36,4.12-8.89,6.78-13.22c5.4-8.8,11.81-15.78,13.99-26.04c1.72-8.13,1.31-17.47-3.34-22.96
		c14.05,11.61,22.28,24.8,13.5,42.24C80.44,79.5,77.23,83.97,74.36,88.34L74.36,88.34z M43.48,118.73
		c-3.57-9.77-5.39-17.84-2.71-26.95c4.43-15.08,19.32-26.29,22.39-42.14c2.37-12.24-3.67-22.53-16.98-33.2
		c3.9,10.69,5.72,19.35,1.82,29.57c-4.93,12.94-18.73,25.2-21.5,39.52C24.13,97.78,30.17,108.06,43.48,118.73L43.48,118.73z
		 M20.33,102.69C8.37,92.81,0.64,81.35,3.89,68.01c2.19-9,10.19-18.9,15.06-26.89c6.84-11.2,10.88-21.98,3.58-38.38
		c11.28,9.21,20.73,22.89,15.22,37.72c-5.15,13.87-17.32,24.8-20.52,38.15C15.23,86.99,15.46,96.94,20.33,102.69z"/>
	<path class="st0" d="M512.5,76.77c0-3.83-0.71-5.4-1.63-7.46c-0.5-1.14-10.01-16.76-12.5-20.45c-1.78-2.63-3.55-4.4-4.9-5.18
		c-0.92-0.5-2.13-0.92-2.98-0.92c-0.57,0-1.07-0.14-1.07-0.64c0-0.43,0.5-0.64,1.35-0.64c1.28,0,6.61,0.21,8.95,0.21
		c1.49,0,4.4-0.21,7.6-0.21c0.71,0,1.07,0.21,1.07,0.64c0,0.43-0.5,0.5-1.56,0.78c-0.64,0.14-0.99,0.71-0.99,1.28
		c0,0.57,0.35,1.42,0.85,2.41c0.99,2.13,10.94,19.25,12.07,21.24c0.71-1.7,9.66-17.33,10.65-19.53c0.71-1.56,0.99-2.77,0.99-3.69
		c0-0.71-0.29-1.49-1.49-1.78c-0.64-0.14-1.28-0.28-1.28-0.71c0-0.5,0.35-0.64,1.21-0.64c2.34,0,4.62,0.21,6.68,0.21
		c1.56,0,6.25-0.21,7.6-0.21c0.78,0,1.28,0.14,1.28,0.57c0,0.5-0.57,0.71-1.35,0.71c-0.71,0-2.06,0.28-3.13,0.85
		c-1.49,0.71-2.27,1.56-3.83,3.48c-2.34,2.84-12.29,19.53-13.57,22.59c-1.06,2.56-1.06,4.76-1.06,7.1v5.82c0,1.14,0,4.12,0.21,7.1
		c0.14,2.06,0.78,3.62,2.91,3.91c0.99,0.14,2.56,0.28,3.55,0.28c0.78,0,1.14,0.21,1.14,0.57c0,0.5-0.57,0.71-1.49,0.71
		c-4.47,0-8.95-0.21-10.87-0.21c-1.78,0-6.25,0.21-8.88,0.21c-0.99,0-1.56-0.14-1.56-0.71c0-0.36,0.36-0.57,1.14-0.57
		c0.99,0,1.85-0.14,2.49-0.28c1.42-0.28,2.06-1.85,2.2-3.91c0.21-2.98,0.21-5.97,0.21-7.1V76.77z"/>
	<path class="st0" d="M438.06,88.42c-6.96-6.11-8.81-14.06-8.81-20.95c0-4.83,1.49-13.21,8.31-19.46
		c5.11-4.69,11.86-7.53,22.44-7.53c4.4,0,7.03,0.28,10.3,0.71c2.7,0.36,4.97,0.99,7.1,1.21c0.78,0.07,1.06,0.43,1.06,0.85
		c0,0.57-0.21,1.42-0.35,3.91c-0.14,2.34-0.07,6.25-0.21,7.67c-0.07,1.07-0.21,1.63-0.85,1.63c-0.57,0-0.71-0.57-0.71-1.56
		c-0.07-2.2-0.99-4.69-2.77-6.53c-2.34-2.49-7.88-4.4-14.42-4.4c-6.18,0-10.23,1.56-13.35,4.4c-5.18,4.76-6.53,11.51-6.53,18.39
		c0,16.9,12.86,25.28,22.37,25.28c6.32,0,10.16-0.71,13-3.98c1.21-1.35,2.13-3.41,2.41-4.69c0.21-1.14,0.36-1.42,0.92-1.42
		c0.5,0,0.64,0.5,0.64,1.06c0,0.85-0.85,7.03-1.56,9.45c-0.35,1.21-0.64,1.56-1.85,2.06c-2.84,1.14-8.24,1.63-12.78,1.63
		C452.69,96.16,444.52,94.03,438.06,88.42z"/>
	<path class="st0" d="M370.22,85.51c0.14,5.54,1.07,7.39,2.49,7.88c1.21,0.43,2.56,0.5,3.69,0.5c0.78,0,1.21,0.14,1.21,0.57
		c0,0.57-0.64,0.71-1.63,0.71c-4.62,0-7.46-0.21-8.81-0.21c-0.64,0-3.98,0.21-7.67,0.21c-0.92,0-1.56-0.07-1.56-0.71
		c0-0.43,0.43-0.57,1.14-0.57c0.92,0,2.2-0.07,3.2-0.35c1.85-0.57,2.13-2.63,2.2-8.81l0.64-42.04c0-1.42,0.21-2.41,0.92-2.41
		c0.78,0,1.42,0.92,2.63,2.2c0.85,0.92,11.65,12.5,22.02,22.8c4.83,4.83,14.42,15.06,15.62,16.19h0.36l-0.71-31.89
		c-0.07-4.33-0.71-5.68-2.42-6.39c-1.07-0.43-2.77-0.43-3.76-0.43c-0.85,0-1.14-0.21-1.14-0.64c0-0.57,0.78-0.64,1.85-0.64
		c3.69,0,7.1,0.21,8.59,0.21c0.78,0,3.48-0.21,6.96-0.21c0.92,0,1.63,0.07,1.63,0.64c0,0.43-0.43,0.64-1.28,0.64
		c-0.71,0-1.28,0-2.13,0.21c-1.99,0.57-2.56,2.06-2.63,6.04l-0.78,44.81c0,1.56-0.28,2.2-0.92,2.2c-0.78,0-1.63-0.78-2.42-1.56
		c-4.47-4.26-13.56-13.56-20.95-20.88c-7.74-7.67-15.62-16.55-16.9-17.9h-0.21L370.22,85.51z"/>
	<path class="st0" d="M313.04,62.07c0-10.8,0-12.78-0.14-15.06c-0.14-2.41-0.71-3.55-3.05-4.05c-0.57-0.14-1.78-0.21-2.77-0.21
		c-0.78,0-1.21-0.14-1.21-0.64c0-0.5,0.5-0.64,1.56-0.64c1.92,0,3.98,0.07,5.75,0.07c1.85,0.07,3.48,0.14,4.47,0.14
		c2.27,0,16.41,0,17.76-0.07c1.35-0.14,2.49-0.28,3.05-0.43c0.36-0.07,0.78-0.28,1.14-0.28c0.36,0,0.43,0.28,0.43,0.64
		c0,0.5-0.35,1.35-0.57,4.62c-0.07,0.71-0.21,3.84-0.35,4.69c-0.07,0.36-0.21,0.78-0.71,0.78c-0.5,0-0.64-0.36-0.64-0.99
		c0-0.5-0.07-1.71-0.43-2.56c-0.5-1.28-1.21-2.13-4.76-2.56c-1.21-0.14-8.67-0.28-10.09-0.28c-0.36,0-0.5,0.21-0.5,0.71v17.97
		c0,0.5,0.07,0.78,0.5,0.78c1.56,0,9.73,0,11.36-0.14c1.7-0.14,2.77-0.35,3.41-1.06c0.5-0.57,0.78-0.92,1.14-0.92
		c0.28,0,0.5,0.14,0.5,0.57c0,0.43-0.28,1.56-0.57,5.18c-0.07,1.42-0.28,4.26-0.28,4.76c0,0.57,0,1.35-0.64,1.35
		c-0.5,0-0.64-0.28-0.64-0.64c-0.07-0.71-0.07-1.63-0.28-2.56c-0.35-1.42-1.35-2.49-3.98-2.77c-1.35-0.14-8.38-0.21-10.08-0.21
		c-0.36,0-0.43,0.28-0.43,0.71v5.61c0,2.41-0.07,8.95,0,11.01c0.14,4.9,1.28,5.97,8.52,5.97c1.85,0,4.83,0,6.68-0.85
		c1.85-0.85,2.7-2.34,3.2-5.26c0.14-0.78,0.28-1.07,0.78-1.07c0.57,0,0.57,0.57,0.57,1.28c0,1.63-0.57,6.46-0.92,7.88
		c-0.5,1.85-1.14,1.85-3.84,1.85c-5.33,0-9.23-0.14-12.29-0.21c-3.05-0.14-5.26-0.21-7.38-0.21c-0.78,0-2.34,0-4.05,0.07
		c-1.63,0-3.48,0.14-4.9,0.14c-0.92,0-1.42-0.21-1.42-0.71c0-0.36,0.28-0.57,1.14-0.57c1.06,0,1.92-0.14,2.56-0.28
		c1.42-0.28,1.77-1.85,2.06-3.91c0.35-2.98,0.35-8.59,0.35-15.13V62.07z"/>
	<path class="st0" d="M286.22,90.41c0,1.92-0.07,2.06-0.92,2.56c-4.62,2.42-11.58,3.2-17.12,3.2c-17.4,0-32.81-8.24-32.81-27.84
		c0-11.36,5.89-19.32,12.36-23.22c6.82-4.12,13.14-4.62,19.1-4.62c4.9,0,11.15,0.85,12.57,1.14c1.49,0.28,3.98,0.71,5.61,0.78
		c0.85,0.07,0.99,0.36,0.99,0.85c0,0.78-0.5,2.77-0.5,11.65c0,1.14-0.21,1.49-0.78,1.49c-0.5,0-0.64-0.36-0.71-0.92
		c-0.21-1.63-0.57-3.91-2.41-5.89c-2.13-2.27-7.81-5.54-15.84-5.54c-3.91,0-9.09,0.28-14.06,4.4c-3.98,3.34-6.53,8.66-6.53,17.4
		c0,15.27,9.73,26.7,24.72,26.7c1.85,0,4.33,0,6.04-0.78c1.07-0.5,1.35-1.42,1.35-2.63v-6.67c0-3.55,0-6.25-0.07-8.38
		c-0.07-2.41-0.71-3.55-3.05-4.05c-0.57-0.14-1.78-0.21-2.77-0.21c-0.64,0-1.07-0.14-1.07-0.57c0-0.57,0.5-0.71,1.49-0.71
		c3.69,0,8.17,0.21,10.3,0.21c2.2,0,5.97-0.21,8.31-0.21c0.92,0,1.42,0.14,1.42,0.71c0,0.43-0.43,0.57-0.92,0.57
		c-0.57,0-1.07,0.07-1.92,0.21c-1.92,0.35-2.63,1.56-2.7,4.05c-0.07,2.13-0.07,4.97-0.07,8.52V90.41z"/>
	<path class="st0" d="M191.66,62.07c0-10.8,0-12.78-0.14-15.06c-0.14-2.41-0.71-3.55-3.05-4.05c-0.57-0.14-1.78-0.21-2.77-0.21
		c-0.78,0-1.21-0.14-1.21-0.64c0-0.5,0.5-0.64,1.56-0.64c1.92,0,3.98,0.07,5.75,0.07c1.85,0.07,3.48,0.14,4.47,0.14
		c2.27,0,16.41,0,17.76-0.07c1.35-0.14,2.49-0.28,3.05-0.43c0.36-0.07,0.78-0.28,1.14-0.28c0.36,0,0.43,0.28,0.43,0.64
		c0,0.5-0.35,1.35-0.57,4.62c-0.07,0.71-0.21,3.84-0.35,4.69c-0.07,0.36-0.21,0.78-0.71,0.78c-0.5,0-0.64-0.36-0.64-0.99
		c0-0.5-0.07-1.71-0.43-2.56c-0.5-1.28-1.21-2.13-4.76-2.56c-1.21-0.14-8.66-0.28-10.08-0.28c-0.36,0-0.5,0.21-0.5,0.71v17.97
		c0,0.5,0.07,0.78,0.5,0.78c1.56,0,9.73,0,11.36-0.14c1.7-0.14,2.77-0.35,3.41-1.06c0.5-0.57,0.78-0.92,1.14-0.92
		c0.28,0,0.5,0.14,0.5,0.57c0,0.43-0.28,1.56-0.57,5.18c-0.07,1.42-0.28,4.26-0.28,4.76c0,0.57,0,1.35-0.64,1.35
		c-0.5,0-0.64-0.28-0.64-0.64c-0.07-0.71-0.07-1.63-0.28-2.56c-0.35-1.42-1.35-2.49-3.98-2.77c-1.35-0.14-8.38-0.21-10.08-0.21
		c-0.36,0-0.43,0.28-0.43,0.71v5.61c0,2.41-0.07,8.95,0,11.01c0.14,4.9,1.28,5.97,8.52,5.97c1.85,0,4.83,0,6.68-0.85
		c1.85-0.85,2.7-2.34,3.2-5.26c0.14-0.78,0.28-1.07,0.78-1.07c0.57,0,0.57,0.57,0.57,1.28c0,1.63-0.57,6.46-0.92,7.88
		c-0.5,1.85-1.14,1.85-3.84,1.85c-5.33,0-9.23-0.14-12.29-0.21c-3.05-0.14-5.26-0.21-7.39-0.21c-0.78,0-2.34,0-4.05,0.07
		c-1.63,0-3.48,0.14-4.9,0.14c-0.92,0-1.42-0.21-1.42-0.71c0-0.36,0.28-0.57,1.14-0.57c1.06,0,1.92-0.14,2.56-0.28
		c1.42-0.28,1.78-1.85,2.06-3.91c0.35-2.98,0.35-8.59,0.35-15.13V62.07z"/>
	<path class="st0" d="M120.22,62.07c0-10.8,0-12.78-0.14-15.06c-0.14-2.41-0.71-3.55-3.05-4.05c-0.57-0.14-1.78-0.21-2.77-0.21
		c-0.78,0-1.21-0.14-1.21-0.64c0-0.5,0.5-0.64,1.56-0.64c3.76,0,8.24,0.21,9.73,0.21c2.41,0,12.92-0.21,15.13-0.21
		c5.71-0.33,10,0.91,13.13,3.09c9.1,6.31,10.01,22.02,0.49,28.7c-0.8,0.56-1.64,0.99-2.46,1.25c3.89,4.89,16.77,17.69,22.86,18.9
		c0.78,0.14,1.42,0.21,1.99,0.21s0.85,0.21,0.85,0.57c0,0.57-0.5,0.71-1.35,0.71l-8.88,0.26c-3.98,0-5.75-0.36-7.6-1.35
		c-1.99-1.06-14.24-14.3-16.76-17.2c-0.35-0.43-0.78-0.5-1.28-0.5l-6.98-0.1l-1.93-0.03l-1.32-0.02c-0.35,0-0.57,0.14-0.57,0.57
		v0.99c0,6.6,0,9.18,0.36,12.16c0.21,2.06,0.64,3.62,2.77,3.91c1.07,0.14,2.63,0.28,3.48,0.28c0.57,0,0.85,0.21,0.85,0.57
		c0,0.5-0.5,0.71-1.42,0.71c-4.12,0-10.44-0.21-11.5-0.21c-1.35,0-5.82,0.21-8.66,0.21c-0.92,0-1.42-0.21-1.42-0.71
		c0-0.36,0.28-0.57,1.14-0.57c1.07,0,1.92-0.14,2.56-0.28c1.42-0.28,1.78-1.85,2.06-3.91c0.35-2.98,0.35-8.59,0.35-15.13V62.07
		L120.22,62.07z M129.67,70.72L129.67,70.72c0,0.78,0.14,1.07,0.64,1.28c1.49,0.5,8.1,0.18,9.87,0.18
		c14.32-0.58,17.35-27.78-5.37-27.32c-1.99,0.04-4.08,0.12-4.5,0.25c-0.5,0.14-0.64,0.43-0.64,0.99V70.72z"/>
	<path class="st0" d="M554.24,42.05c0.55,0,1.09,0.11,1.59,0.32c0.49,0.21,0.92,0.5,1.3,0.88c0.38,0.38,0.67,0.81,0.88,1.3
		c0.21,0.5,0.32,1.04,0.32,1.59c0,0.55-0.11,1.09-0.32,1.59c-0.21,0.49-0.5,0.92-0.88,1.3c-0.38,0.38-0.81,0.67-1.3,0.88
		c-0.5,0.21-1.04,0.32-1.59,0.32c-0.55,0-1.09-0.11-1.59-0.32c-0.49-0.21-0.92-0.5-1.3-0.88c-0.38-0.38-0.67-0.81-0.88-1.3
		c-0.21-0.5-0.32-1.04-0.32-1.59c0-0.55,0.11-1.09,0.32-1.59c0.21-0.49,0.5-0.92,0.88-1.3c0.38-0.38,0.81-0.67,1.3-0.88
		C553.16,42.15,553.69,42.05,554.24,42.05L554.24,42.05z M554.24,41.47L554.24,41.47c-2.58,0-4.66,2.09-4.66,4.66
		c0,2.58,2.09,4.66,4.66,4.66s4.66-2.09,4.66-4.66C558.91,43.56,556.82,41.47,554.24,41.47z"/>
	<path class="st0" d="M555.44,48.36h0.73l-0.21-0.27l-1.15-1.45h0c0.75,0,1.36-0.61,1.36-1.36c0-0.75-0.61-1.36-1.36-1.36h-2.22
		v0.29v0.29v1.58v0.57v1.72h0.57v-1.72h0.92L555.44,48.36L555.44,48.36z M553.16,44.49L553.16,44.49h1.65
		c0.44,0,0.79,0.35,0.79,0.79c0,0.44-0.35,0.79-0.79,0.79h-1.65V44.49z"/>
</g>
</svg>
